<svg width="192" height="64" viewBox="0 0 192 64" fill="none" xmlns="http://www.w3.org/2000/svg">
<g id="Mobile app store badge">
<rect x="0.5" y="0.5" width="191" height="63" rx="6.5" stroke="#A6A6A6"/>
<g id="App Store">
<path d="M130.441 30.7215V34.3871H128.144V36.791H130.441V44.959C130.441 47.748 131.703 48.8637 134.877 48.8637C135.435 48.8637 135.966 48.7973 136.431 48.7176V46.3402C136.033 46.3801 135.78 46.4066 135.342 46.4066C133.921 46.4066 133.297 45.7426 133.297 44.2285V36.791H136.431V34.3871H133.297V30.7215H130.441Z" fill="white"/>
<path d="M144.517 49.0629C148.741 49.0629 151.33 46.234 151.33 41.5457C151.33 36.884 148.727 34.0418 144.517 34.0418C140.294 34.0418 137.691 36.884 137.691 41.5457C137.691 46.234 140.28 49.0629 144.517 49.0629ZM144.517 46.5262C142.034 46.5262 140.639 44.7066 140.639 41.5457C140.639 38.4113 142.034 36.5785 144.517 36.5785C146.988 36.5785 148.395 38.4113 148.395 41.5457C148.395 44.6934 146.988 46.5262 144.517 46.5262Z" fill="white"/>
<path d="M153.546 48.784H156.402V40.2441C156.402 38.2121 157.929 36.8441 160.094 36.8441C160.599 36.8441 161.449 36.9371 161.688 37.0168V34.2012C161.382 34.1215 160.838 34.0816 160.413 34.0816C158.527 34.0816 156.92 35.1176 156.508 36.5387H156.296V34.3207H153.546V48.784Z" fill="white"/>
<path d="M168.778 36.4723C170.89 36.4723 172.271 37.9465 172.337 40.2176H165.032C165.192 37.9598 166.666 36.4723 168.778 36.4723ZM172.324 44.8793C171.793 46.0082 170.611 46.6324 168.884 46.6324C166.6 46.6324 165.125 45.0254 165.032 42.4887V42.3293H175.246V41.3332C175.246 36.791 172.815 34.0418 168.791 34.0418C164.714 34.0418 162.124 36.977 162.124 41.5988C162.124 46.2207 164.661 49.0629 168.804 49.0629C172.111 49.0629 174.422 47.4691 175.073 44.8793H172.324Z" fill="white"/>
<path d="M111.715 43.4429C111.936 46.9945 114.895 49.2658 119.3 49.2658C124.008 49.2658 126.954 46.8843 126.954 43.085C126.954 40.0979 125.275 38.446 121.2 37.4962L119.011 36.9593C116.423 36.3536 115.377 35.5415 115.377 34.1236C115.377 32.3341 117.001 31.164 119.438 31.164C121.751 31.164 123.347 32.3065 123.636 34.1374H126.637C126.458 30.7923 123.513 28.4384 119.479 28.4384C115.143 28.4384 112.252 30.7923 112.252 34.3301C112.252 37.2484 113.89 38.9829 117.483 39.8226L120.044 40.442C122.673 41.0615 123.829 41.97 123.829 43.4842C123.829 45.2462 122.012 46.5264 119.534 46.5264C116.878 46.5264 115.033 45.3288 114.771 43.4429H111.715Z" fill="white"/>
<path d="M82.1357 34.0816C80.1701 34.0816 78.4701 35.0645 77.5935 36.7113H77.381V34.3207H74.6318V53.5918H77.4873V46.5926H77.7131C78.4701 48.1199 80.1037 49.023 82.1623 49.023C85.8146 49.023 88.1389 46.141 88.1389 41.5457C88.1389 36.9504 85.8146 34.0816 82.1357 34.0816ZM81.3256 46.4598C78.9349 46.4598 77.4342 44.5738 77.4342 41.559C77.4342 38.5309 78.9349 36.6449 81.3389 36.6449C83.756 36.6449 85.2037 38.491 85.2037 41.5457C85.2037 44.6137 83.756 46.4598 81.3256 46.4598Z" fill="white"/>
<path d="M98.1306 34.0816C96.165 34.0816 94.465 35.0645 93.5884 36.7113H93.3759V34.3207H90.6267V53.5918H93.4822V46.5926H93.7079C94.465 48.1199 96.0986 49.023 98.1572 49.023C101.81 49.023 104.134 46.141 104.134 41.5457C104.134 36.9504 101.81 34.0816 98.1306 34.0816ZM97.3204 46.4598C94.9298 46.4598 93.429 44.5738 93.429 41.559C93.429 38.5309 94.9298 36.6449 97.3337 36.6449C99.7509 36.6449 101.199 38.491 101.199 41.5457C101.199 44.6137 99.7509 46.4598 97.3204 46.4598Z" fill="white"/>
<path d="M69.5086 48.784H72.7848L65.6129 28.9202H62.2954L55.1235 48.784H58.2896L60.1205 43.5118H67.6916L69.5086 48.784ZM63.7959 32.5268H64.0299L66.9069 40.9238H60.9051L63.7959 32.5268Z" fill="white"/>
</g>
<g id="Download on the">
<path d="M57.042 13.9375V23.5199H60.5018C63.3572 23.5199 65.0107 21.7602 65.0107 18.6988C65.0107 15.684 63.3439 13.9375 60.5018 13.9375H57.042ZM58.5295 15.2922H60.3357C62.3213 15.2922 63.4967 16.5539 63.4967 18.7188C63.4967 20.9168 62.3412 22.1652 60.3357 22.1652H58.5295V15.2922Z" fill="white"/>
<path d="M70.0749 23.6594C72.1866 23.6594 73.4815 22.2449 73.4815 19.9008C73.4815 17.5699 72.18 16.1488 70.0749 16.1488C67.9632 16.1488 66.6616 17.5699 66.6616 19.9008C66.6616 22.2449 67.9565 23.6594 70.0749 23.6594ZM70.0749 22.391C68.8331 22.391 68.1358 21.4813 68.1358 19.9008C68.1358 18.3336 68.8331 17.4172 70.0749 17.4172C71.31 17.4172 72.0139 18.3336 72.0139 19.9008C72.0139 21.4746 71.31 22.391 70.0749 22.391Z" fill="white"/>
<path d="M84.5089 16.2883H83.0812L81.7929 21.8066H81.68L80.1925 16.2883H78.8246L77.3371 21.8066H77.2308L75.9359 16.2883H74.4882L76.4804 23.5199H77.948L79.4355 18.1941H79.5484L81.0425 23.5199H82.5234L84.5089 16.2883Z" fill="white"/>
<path d="M86.1532 23.5199H87.5809V19.2898C87.5809 18.1609 88.2516 17.457 89.3075 17.457C90.3633 17.457 90.868 18.0348 90.868 19.1969V23.5199H92.2957V18.8383C92.2957 17.1184 91.4059 16.1488 89.7922 16.1488C88.7032 16.1488 87.986 16.6336 87.634 17.4371H87.5278V16.2883H86.1532V23.5199Z" fill="white"/>
<path d="M94.5443 23.5199H95.972V13.466H94.5443V23.5199Z" fill="white"/>
<path d="M101.342 23.6594C103.453 23.6594 104.748 22.2449 104.748 19.9008C104.748 17.5699 103.447 16.1488 101.342 16.1488C99.2299 16.1488 97.9283 17.5699 97.9283 19.9008C97.9283 22.2449 99.2232 23.6594 101.342 23.6594ZM101.342 22.391C100.1 22.391 99.4025 21.4813 99.4025 19.9008C99.4025 18.3336 100.1 17.4172 101.342 17.4172C102.577 17.4172 103.281 18.3336 103.281 19.9008C103.281 21.4746 102.577 22.391 101.342 22.391Z" fill="white"/>
<path d="M109.002 22.4375C108.225 22.4375 107.661 22.059 107.661 21.4082C107.661 20.7707 108.112 20.432 109.108 20.3656L110.875 20.2527V20.857C110.875 21.7535 110.078 22.4375 109.002 22.4375ZM108.637 23.6395C109.587 23.6395 110.377 23.2277 110.808 22.5039H110.921V23.5199H112.296V18.5793C112.296 17.052 111.273 16.1488 109.46 16.1488C107.82 16.1488 106.651 16.9457 106.505 18.1875H107.887C108.046 17.6762 108.597 17.384 109.394 17.384C110.37 17.384 110.875 17.8156 110.875 18.5793V19.2035L108.916 19.3164C107.196 19.4227 106.226 20.173 106.226 21.4746C106.226 22.7961 107.242 23.6395 108.637 23.6395Z" fill="white"/>
<path d="M117.141 23.6395C118.137 23.6395 118.98 23.168 119.412 22.3777H119.525V23.5199H120.893V13.466H119.465V17.4371H119.359C118.967 16.6402 118.13 16.1688 117.141 16.1688C115.315 16.1688 114.139 17.6164 114.139 19.9008C114.139 22.1918 115.302 23.6395 117.141 23.6395ZM117.546 17.4504C118.741 17.4504 119.492 18.4 119.492 19.9074C119.492 21.4215 118.748 22.3578 117.546 22.3578C116.337 22.3578 115.614 21.4348 115.614 19.9008C115.614 18.3801 116.344 17.4504 117.546 17.4504Z" fill="white"/>
<path d="M130.151 23.6594C132.263 23.6594 133.558 22.2449 133.558 19.9008C133.558 17.5699 132.256 16.1488 130.151 16.1488C128.04 16.1488 126.738 17.5699 126.738 19.9008C126.738 22.2449 128.033 23.6594 130.151 23.6594ZM130.151 22.391C128.91 22.391 128.212 21.4813 128.212 19.9008C128.212 18.3336 128.91 17.4172 130.151 17.4172C131.386 17.4172 132.09 18.3336 132.09 19.9008C132.09 21.4746 131.386 22.391 130.151 22.391Z" fill="white"/>
<path d="M135.448 23.5199H136.876V19.2898C136.876 18.1609 137.546 17.457 138.602 17.457C139.658 17.457 140.163 18.0348 140.163 19.1969V23.5199H141.59V18.8383C141.59 17.1184 140.701 16.1488 139.087 16.1488C137.998 16.1488 137.281 16.6336 136.929 17.4371H136.822V16.2883H135.448V23.5199Z" fill="white"/>
<path d="M148.166 14.4887V16.3215H147.017V17.5234H148.166V21.6074C148.166 23.002 148.797 23.5598 150.384 23.5598C150.663 23.5598 150.928 23.5266 151.161 23.4867V22.298C150.962 22.318 150.836 22.3313 150.616 22.3313C149.906 22.3313 149.594 21.9992 149.594 21.2422V17.5234H151.161V16.3215H149.594V14.4887H148.166Z" fill="white"/>
<path d="M153.077 23.5199H154.505V19.2965C154.505 18.2008 155.156 17.4637 156.325 17.4637C157.334 17.4637 157.872 18.048 157.872 19.2035V23.5199H159.3V18.8516C159.3 17.1316 158.35 16.1555 156.809 16.1555C155.72 16.1555 154.957 16.6402 154.605 17.4504H154.492V13.466H153.077V23.5199Z" fill="white"/>
<path d="M164.45 17.3641C165.506 17.3641 166.197 18.1012 166.23 19.2367H162.577C162.657 18.1078 163.394 17.3641 164.45 17.3641ZM166.223 21.5676C165.958 22.132 165.367 22.4441 164.503 22.4441C163.361 22.4441 162.624 21.6406 162.577 20.3723V20.2926H167.684V19.7945C167.684 17.5234 166.469 16.1488 164.457 16.1488C162.418 16.1488 161.123 17.6164 161.123 19.9273C161.123 22.2383 162.392 23.6594 164.463 23.6594C166.117 23.6594 167.272 22.8625 167.598 21.5676H166.223Z" fill="white"/>
</g>
<g id="Apple logo">
<path d="M39.6303 32.4813C39.6649 29.7917 41.1094 27.2468 43.4008 25.838C41.9552 23.7735 39.534 22.4645 37.0149 22.3857C34.3281 22.1037 31.7234 23.9935 30.3543 23.9935C28.9587 23.9935 26.8507 22.4137 24.5807 22.4604C21.6219 22.556 18.8635 24.2382 17.424 26.825C14.3296 32.1825 16.6378 40.0562 19.6019 44.3868C21.085 46.5073 22.8182 48.876 25.0861 48.792C27.3054 48.7 28.1343 47.3769 30.8132 47.3769C33.4672 47.3769 34.2449 48.792 36.5588 48.7386C38.9402 48.7 40.4406 46.6086 41.8716 44.468C42.9372 42.957 43.7571 41.2871 44.3011 39.52C41.5025 38.3363 39.6336 35.5199 39.6303 32.4813Z" fill="white"/>
<path d="M35.2596 19.5377C36.5581 17.979 37.1978 15.9755 37.0429 13.9527C35.0591 14.1611 33.2267 15.1092 31.9107 16.6081C30.6239 18.0726 29.9542 20.0409 30.0808 21.9863C32.0652 22.0068 34.0161 21.0844 35.2596 19.5377Z" fill="white"/>
</g>
</g>
</svg>
