<svg width="99" height="20" viewBox="0 0 99 20" fill="none" xmlns="http://www.w3.org/2000/svg">
<g id="Logo">
<path d="M6.35938 3.77143V20H10.9586V3.77143H17.318V0H0V3.77143H6.35938Z" fill="#F2F3F4"/>
<path fill-rule="evenodd" clip-rule="evenodd" d="M19.7926 20V0H28.3948C30.1739 0 31.707 0.295238 32.994 0.885714C34.281 1.45714 35.2746 2.28571 35.9749 3.37143C36.6752 4.45714 37.0254 5.75238 37.0254 7.25714C37.0254 8.74286 36.6752 10.0286 35.9749 11.1143C35.2746 12.181 34.281 13 32.994 13.5714C32.9859 13.575 32.9777 13.5786 32.9696 13.5822C32.9647 13.5843 32.9599 13.5865 32.955 13.5886L37.3944 20H32.4262L28.611 14.4271C28.5393 14.4281 28.4672 14.4286 28.3948 14.4286H24.3918V20H19.7926ZM28.1393 10.7429H24.3918V3.77143H28.1393C29.5588 3.77143 30.6187 4.07619 31.319 4.68571C32.0192 5.29524 32.3694 6.15238 32.3694 7.25714C32.3694 8.34286 32.0192 9.2 31.319 9.82857C30.6187 10.4381 29.5588 10.7429 28.1393 10.7429Z" fill="#F2F3F4"/>
<path d="M45.2401 11.6571V16.2857H56.0567V20H40.6693V0H55.6876V3.71429H45.2401V8.05714H54.4669V11.6571H45.2401Z" fill="#F2F3F4"/>
<path d="M64.287 20V14.9514L66.95 12.1537L73.315 20H78.6807L69.9706 8.91071L78.1981 0H73.0879L64.287 9.33305V0H59.7162V20H64.287Z" fill="#F2F3F4"/>
<path fill-rule="evenodd" clip-rule="evenodd" d="M80.7315 20V0H89.3337C91.1128 0 92.6459 0.295238 93.9329 0.885714C95.2199 1.45714 96.2136 2.28571 96.9138 3.37143C97.6141 4.45714 97.9643 5.75238 97.9643 7.25714C97.9643 8.74286 97.6141 10.0286 96.9138 11.1143C96.2136 12.181 95.2199 13 93.9329 13.5714C93.9199 13.5772 93.9069 13.5829 93.8939 13.5886L98.3333 20H93.3651L89.5499 14.4271C89.4782 14.4281 89.4062 14.4286 89.3337 14.4286H85.3307V20H80.7315ZM89.0782 10.7429H85.3307V3.77143H89.0782C90.4977 3.77143 91.5576 4.07619 92.2579 4.68571C92.9582 5.29524 93.3083 6.15238 93.3083 7.25714C93.3083 8.34286 92.9582 9.2 92.2579 9.82857C91.5576 10.4381 90.4977 10.7429 89.0782 10.7429Z" fill="#F2F3F4"/>
</g>
</svg>
